# xmcd
#
# Track frame offsets:
#	150
#	13427
#	28775
#	49362
#	66140
#	84550
#	98420
#	116940
#	134750
#	152427
#	168520
#	181310
#
# Disc length: 2718 seconds
#
# Revision: 7
# Processed by: cddbd v1.5.1PL2 Copyright (c) Steve Scherf et al.
# Submitted via: audiograbber 1.81.03
#
DISCID=a50a9c0c
DTITLE=Patty Loveless - Classics
DYEAR=1997
DGENRE=Country
TTITLE0=Can't Get Enough
TTITLE1=You Can Feel Bad
TTITLE2=Lonely Too Long
TTITLE3=I Just Wanna Be Loved By You
TTITLE4=You Don't Even Know Who I Am
TTITLE5=Here I Am
TTITLE6=You Don't Seem To Miss Me
TTITLE7=Nothin' But The Wheel
TTITLE8=My Kind of woman, My Kind of Man
TTITLE9=Blame It On Your Heart
TTITLE10=I Try To Think About Elvis
TTITLE11=How Can I Help You Say Goodbye
EXTD=
EXTT0=
EXTT1=
EXTT2=
EXTT3=
EXTT4=
EXTT5=
EXTT6=
EXTT7=
EXTT8=
EXTT9=
EXTT10=
EXTT11=
PLAYORDER=
